# xmcd
#
# Track frame offsets:
#       150
#       16286
#       31667
#       46680
#       67120
#       88984
#       104140
#       122184
#       135832
#       163799
#
# Disc length: 2425 seconds
#
# Revision: 0
# Processed by: cddbd v1.5.1PL2 Copyright (c) Steve Scherf et al.
# Submitted via: WhereIsIt 3.72
#
DISCID=8209770a
DTITLE=Brent Reece And The Main Street Band - Almost Live
DYEAR=2005
DGENRE=Folk
TTITLE0=Both Sides Now
TTITLE1=Love's A Dangerous Word
TTITLE2=Evening's The Way
TTITLE3=Where Are You Going, Mary Margaret?
TTITLE4=The Night Comes On
TTITLE5=Pack Up Your Sorrows
TTITLE6=Travel On
TTITLE7=Follow The Drum
TTITLE8=City Of New Orleans
TTITLE9=Mama's Sweet Lullaby
EXTD=
EXTT0=
EXTT1=
EXTT2=
EXTT3=
EXTT4=
EXTT5=
EXTT6=
EXTT7=
EXTT8=
EXTT9=
PLAYORDER=
